<?xml version="1.0" encoding="utf-8"?>

<!DOCTYPE svg PUBLIC "-//W3C//DTD SVG 1.0//EN" "http://www.w3.org/TR/2001/REC-SVG-20010904/DTD/svg10.dtd">
<!-- Uploaded to: SVG Repo, www.svgrepo.com, Generator: SVG Repo Mixer Tools -->
<svg version="1.0" id="Layer_1" xmlns="http://www.w3.org/2000/svg" xmlns:xlink="http://www.w3.org/1999/xlink" 
	 width="800px" height="800px" viewBox="0 0 64 64" enable-background="new 0 0 64 64" xml:space="preserve">
<g>
	<path fill="#394240" d="M60,0H4C1.789,0,0,1.789,0,4v40c0,2.211,1.789,4,4,4h24v8h-8c-2.211,0-4,1.789-4,4s1.789,4,4,4h24
		c2.211,0,4-1.789,4-4s-1.789-4-4-4h-8v-8h24c2.211,0,4-1.789,4-4V4C64,1.789,62.211,0,60,0z M56,40H8V8h48V40z"/>
	<rect x="8" y="8" fill="#B4CCB9" width="48" height="32"/>
</g>
</svg>